<svg width="122" height="31" viewBox="0 0 122 31" fill="none" xmlns="http://www.w3.org/2000/svg">
<g id="Layer 2">
<g id="Layer 1">
<path id="Vector" d="M4.034 9.98606H3.954V29.6981C2.63667 29.7861 1.31867 29.8774 0 29.9721V2.81806C1.83867 2.66073 3.676 2.51006 5.512 2.36606C6.99067 7.68473 8.46933 13.0181 9.948 18.3661H10.028V2.02406C11.3347 1.93073 12.6407 1.83939 13.946 1.75006V29.1041C12.4393 29.1841 10.9333 29.2694 9.428 29.3601C7.63067 22.8787 5.83267 16.4207 4.034 9.98606Z" fill="#F80000"/>
<path id="Vector_2" d="M20.7419 7.91005C20.7419 3.52205 23.1019 0.86605 27.4219 0.64605C31.7419 0.42605 34.1019 2.86605 34.1019 7.28805V21.656C34.1019 26.082 31.7419 28.656 27.4219 28.814C23.1019 28.972 20.7419 26.574 20.7419 22.1821V7.91005ZM25.1419 22.258C25.1419 24.224 26.0219 24.934 27.4219 24.88C28.8219 24.826 29.7019 24.05 29.7019 22.08V7.20005C29.7019 5.23005 28.8219 4.52005 27.4219 4.58805C26.0219 4.65605 25.1419 5.44805 25.1419 7.41205V22.258Z" fill="#F80000"/>
<path id="Vector_3" d="M39.666 0.446065C44.1993 0.292732 48.7327 0.178732 53.266 0.104065V4.08806C51.7313 4.11206 50.198 4.13873 48.666 4.16806V28.0281C47.1993 28.0401 45.7327 28.0567 44.266 28.0781V4.27806C42.7313 4.31806 41.198 4.36206 39.666 4.41006V0.446065Z" fill="#F80000"/>
<path id="Vector_4" d="M63.6 12.462C65.4946 12.462 67.3893 12.4747 69.284 12.5V16.518C67.388 16.494 65.4933 16.4774 63.6 16.468V28.046C62.1333 28.03 60.6666 28.018 59.2 28.01V0.0300444C63.08 -0.00462222 66.962 -0.00928889 70.846 0.0160444V4.03604C68.4326 4.01204 66.0173 4.00338 63.6 4.01004V12.462Z" fill="#F80000"/>
<path id="Vector_5" d="M76.97 0.0800476C78.4367 0.100048 79.9034 0.124714 81.37 0.154048V24.4C83.786 24.476 86.2007 24.5647 88.614 24.666V28.72C84.7327 28.552 80.8507 28.4134 76.968 28.304L76.97 0.0800476Z" fill="#F80000"/>
<path id="Vector_6" d="M94.5359 0.532074C96.0026 0.586741 97.4692 0.645407 98.9359 0.708074V29.2381C97.4692 29.1554 96.0026 29.0767 94.5359 29.0021V0.532074Z" fill="#F80000"/>
<path id="Vector_7" d="M120.8 1.95606C119.269 6.51873 117.736 11.0721 116.2 15.6161C117.839 20.6667 119.477 25.7334 121.114 30.8161C119.57 30.6827 118.025 30.5547 116.48 30.4321C115.297 26.5441 114.113 22.6667 112.928 18.8001H112.848C111.648 22.5067 110.448 26.2087 109.248 29.9061C107.876 29.8074 106.504 29.7147 105.132 29.6281C106.771 24.8281 108.409 20.0214 110.048 15.2081C108.516 10.4667 106.983 5.7394 105.448 1.02606C106.965 1.1034 108.484 1.18606 110.004 1.27406C111.096 4.86073 112.189 8.45539 113.282 12.0581H113.362C114.479 8.60473 115.598 5.14673 116.718 1.68406C118.079 1.7614 119.44 1.85206 120.8 1.95606Z" fill="#F80000"/>
</g>
</g>
</svg>
