<svg width="26" height="26" viewBox="0 0 26 26" fill="none" xmlns="http://www.w3.org/2000/svg">
<path d="M21.06 10.53C21.06 12.8537 20.3057 15.0002 19.035 16.7417L25.4441 23.1559C26.0769 23.7887 26.0769 24.8164 25.4441 25.4492C24.8113 26.082 23.7836 26.082 23.1508 25.4492L16.7417 19.035C15.0002 20.3107 12.8537 21.06 10.53 21.06C4.71319 21.06 0 16.3468 0 10.53C0 4.71318 4.71319 0 10.53 0C16.3468 0 21.06 4.71318 21.06 10.53ZM10.53 17.82C11.4873 17.82 12.4353 17.6314 13.3198 17.2651C14.2042 16.8987 15.0079 16.3617 15.6848 15.6848C16.3617 15.0079 16.8987 14.2042 17.2651 13.3198C17.6314 12.4353 17.82 11.4873 17.82 10.53C17.82 9.57266 17.6314 8.62469 17.2651 7.74023C16.8987 6.85577 16.3617 6.05213 15.6848 5.37519C15.0079 4.69825 14.2042 4.16127 13.3198 3.79492C12.4353 3.42856 11.4873 3.24 10.53 3.24C9.57267 3.24 8.6247 3.42856 7.74024 3.79492C6.85578 4.16127 6.05213 4.69825 5.37519 5.37519C4.69825 6.05213 4.16128 6.85577 3.79492 7.74023C3.42856 8.62469 3.24 9.57266 3.24 10.53C3.24 11.4873 3.42856 12.4353 3.79492 13.3198C4.16128 14.2042 4.69825 15.0079 5.37519 15.6848C6.05213 16.3617 6.85578 16.8987 7.74024 17.2651C8.6247 17.6314 9.57267 17.82 10.53 17.82Z" fill="#D9D9D9"/>
</svg>
